{
.appVersion = "998";
copyright = "Copyright 2017 Google Inc. All Rights Reserved.";
customParameters = (
{
name = glyphOrder;
value = (
.notdef,
NULL,
CR,
space,
u10B60,
u10B61,
u10B62,
u10B63,
u10B64,
u10B65,
u10B66,
u10B67,
u10B68,
u10B69,
u10B6A,
u10B6B,
u10B6C,
u10B6D,
u10B6E,
u10B6F,
u10B70,
u10B71,
u10B72,
u10B78,
u10B79,
u10B7A,
u10B7B,
u10B7C,
u10B7D,
u10B7E,
u10B7F,
u10B6B.alt01,
u10B61.alt01,
u10B61.alt02,
uni00A0
);
},
{
name = description;
value = "Designed by Monotype design team.";
},
{
name = license;
value = "This Font Software is licensed under the SIL Open Font License, Version 1.1. This Font Software is distributed on an \"AS IS\" BASIS, WITHOUT WARRANTIES OR CONDITIONS OF ANY KIND, either express or implied. See the SIL Open Font License for the specific language, permissions and limitations governing your use of this Font Software.";
},
{
name = licenseURL;
value = "http://scripts.sil.org/OFL";
},
{
name = vendorID;
value = GOOG;
},
{
name = unicodeRanges;
value = (
0,
1,
57
);
},
{
name = trademark;
value = "Noto is a trademark of Google Inc.";
},
{
name = "Has WWS Names";
value = 1;
},
{
name = versionString;
value = "Version 2.000";
},
{
name = fsType;
value = (
);
},
{
name = codePageRanges;
value = (
"1252"
);
}
);
date = "2017-03-03 21:36:44 +0000";
designer = "Monotype Design Team";
designerURL = "http://www.monotype.com/studio";
disablesAutomaticAlignment = 1;
disablesNiceNames = 1;
familyName = "Noto Sans Inscriptional Pahlavi";
fontMaster = (
{
alignmentZones = (
"{1069, 15}",
"{760, 15}",
"{536, 15}",
"{0, -15}",
"{-352, -15}"
);
ascender = 1069;
capHeight = 760;
customParameters = (
{
name = typoAscender;
value = 1069;
},
{
name = typoDescender;
value = -352;
},
{
name = typoLineGap;
value = 0;
},
{
name = winAscent;
value = 1069;
},
{
name = winDescent;
value = 352;
},
{
name = hheaAscender;
value = 1069;
},
{
name = hheaDescender;
value = -352;
},
{
name = hheaLineGap;
value = 0;
},
{
name = underlinePosition;
value = -100;
},
{

glyphs = (
{
glyphname = .notdef;
lastChange = "2017-04-12 19:56:05 +0000";
layers = (
{
layerId = UUID0;
paths = (
{
closed = 1;
nodes = (
"505 0 LINE",
"505 714 LINE",
"94 714 LINE",
"94 0 LINE"
);
},
{
closed = 1;
nodes = (
"145 663 LINE",
"454 663 LINE",
"454 51 LINE",
"145 51 LINE"
);
}
);
width = 600;
}
);
},
{
glyphname = u10B60;
lastChange = "2017-04-12 19:56:05 +0000";
layers = (
{
layerId = UUID0;
paths = (
{
closed = 1;
nodes = (
"620 0 LINE",
"620 536 LINE",
"531 536 LINE",
"531 74 LINE",
"337 74 LINE",
"237 536 LINE",
"146 536 LINE",
"247 74 LINE",
"15 74 LINE",
"15 0 LINE"
);
}
);
width = 705;
}
);
unicode = 10B60;
category = Letter;
},
{
glyphname = u10B61;
lastChange = "2017-04-12 19:56:05 +0000";
layers = (
{
layerId = UUID0;
paths = (
{
closed = 1;
nodes = (
"807 -144 LINE",
"807 336 LINE",
"718 336 LINE",
"718 -70 LINE",
"15 -70 LINE",
"15 -144 LINE"
);
}
);
width = 892;
}
);
unicode = 10B61;
category = Letter;
},
{
glyphname = u10B62;
lastChange = "2017-04-12 19:56:05 +0000";
layers = (
{
layerId = UUID0;
paths = (
{
closed = 1;
nodes = (
"531 0 LINE",
"498 130 OFFCURVE",
"460 223 OFFCURVE",
"392 342 CURVE SMOOTH",
"275 546 LINE",
"199 502 LINE",
"316 298 LINE SMOOTH",
"362 217 OFFCURVE",
"397 143 OFFCURVE",
"421 74 CURVE",
"15 74 LINE",
"15 0 LINE"
);
}
);
width = 609;
}
);
unicode = 10B62;
category = Letter;
},
{
glyphname = u10B63;
lastChange = "2017-04-12 19:56:05 +0000";
layers = (
{
layerId = UUID0;
paths = (
{
closed = 1;
nodes = (
"274 -210 OFFCURVE",
"401 -150 OFFCURVE",
"401 -10 CURVE SMOOTH",
"401 107 OFFCURVE",
"326 194 OFFCURVE",
"189 239 CURVE",
"276 284 OFFCURVE",
"342 333 OFFCURVE",
"342 412 CURVE SMOOTH",
"342 499 OFFCURVE",
"277 546 OFFCURVE",
"160 546 CURVE SMOOTH",
"123 546 OFFCURVE",
"78 538 OFFCURVE",
"51 525 CURVE",
"76 453 LINE",
"90 462 OFFCURVE",
"134 472 OFFCURVE",
"160 472 CURVE SMOOTH",
"221 472 OFFCURVE",
"252 451 OFFCURVE",
"252 413 CURVE SMOOTH",
"252 357 OFFCURVE",
"212 324 OFFCURVE",
"109 266 CURVE",
"109 197 LINE",
"221 169 OFFCURVE",
"309 96 OFFCURVE",
"309 -10 CURVE SMOOTH",
"309 -90 OFFCURVE",
"240 -136 OFFCURVE",
"119 -136 CURVE SMOOTH",
"85 -136 OFFCURVE",
"5 -127 OFFCURVE",
"-25 -119 CURVE",
"-25 -193 LINE",
"10 -202 OFFCURVE",
"77 -210 OFFCURVE",
"115 -210 CURVE SMOOTH"
);
}
);
width = 439;
}
);
unicode = 10B63;
category = Letter;
},
{
glyphname = u10B64;
lastChange = "2017-04-12 19:56:05 +0000";
layers = (
{
layerId = UUID0;
paths = (
{
closed = 1;
nodes = (
"605 -10 OFFCURVE",
"640 -6 OFFCURVE",
"679 0 CURVE",
"679 74 LINE",
"641 67 OFFCURVE",
"607 64 OFFCURVE",
"577 64 CURVE SMOOTH",
"523 64 OFFCURVE",
"515 82 OFFCURVE",
"515 141 CURVE SMOOTH",
"515 394 LINE",
"563 372 OFFCURVE",
"616 361 OFFCURVE",
"673 361 CURVE SMOOTH",
"771 361 OFFCURVE",
"839 411 OFFCURVE",
"839 505 CURVE SMOOTH",
"839 512 OFFCURVE",
"838 523 OFFCURVE",
"835 536 CURVE",
"746 536 LINE",
"749 527 OFFCURVE",
"750 518 OFFCURVE",
"750 507 CURVE SMOOTH",
"750 466 OFFCURVE",
"721 435 OFFCURVE",
"675 435 CURVE SMOOTH",
"517 435 OFFCURVE",
"475 546 OFFCURVE",
"299 546 CURVE SMOOTH",
"154 546 OFFCURVE",
"60 450 OFFCURVE",
"60 297 CURVE SMOOTH",
"60 206 OFFCURVE",
"95 77 OFFCURVE",
"139 0 CURVE",
"229 0 LINE",
"185 85 OFFCURVE",
"149 203 OFFCURVE",
"149 297 CURVE SMOOTH",
"149 412 OFFCURVE",
"206 472 OFFCURVE",
"311 472 CURVE SMOOTH",
"347 472 OFFCURVE",
"385 461 OFFCURVE",
"427 440 CURVE",
"427 146 LINE SMOOTH",
"427 26 OFFCURVE",
"463 -10 OFFCURVE",
"572 -10 CURVE"
);
}
);
width = 859;
}
);
unicode = 10B64;
category = Letter;
},
{
glyphname = u10B65;
lastChange = "2017-04-12 19:56:05 +0000";
layers = (
{
layerId = UUID0;
paths = (
{
closed = 1;
nodes = (
"532 0 LINE",
"532 74 LINE",
"316 74 LINE",
"431 138 OFFCURVE",
"489 227 OFFCURVE",
"489 339 CURVE SMOOTH",
"489 469 OFFCURVE",
"406 546 OFFCURVE",
"267 546 CURVE SMOOTH",
"164 546 OFFCURVE",
"83 492 OFFCURVE",
"52 396 CURVE",
"135 366 LINE",
"154 428 OFFCURVE",
"204 472 OFFCURVE",
"267 472 CURVE SMOOTH",
"346 472 OFFCURVE",
"400 419 OFFCURVE",
"400 341 CURVE SMOOTH",
"400 199 OFFCURVE",
"305 106 OFFCURVE",
"116 63 CURVE",
"116 0 LINE"
);
}
);
width = 578;
}
);
unicode = 10B65;
category = Letter;
},
{
glyphname = u10B66;
lastChange = "2017-04-12 19:56:05 +0000";
layers = (
{
layerId = UUID0;
paths = (
{
closed = 1;
nodes = (
"154 -10 OFFCURVE",
"256 20 OFFCURVE",
"350 80 CURVE",
"350 171 LINE",
"241 250 OFFCURVE",
"168 303 OFFCURVE",
"168 380 CURVE SMOOTH",
"168 437 OFFCURVE",
"195 472 OFFCURVE",
"250 472 CURVE SMOOTH",
"274 472 OFFCURVE",
"298 468 OFFCURVE",
"322 460 CURVE",
"344 532 LINE",
"315 542 OFFCURVE",
"284 546 OFFCURVE",
"250 546 CURVE SMOOTH",
"147 546 OFFCURVE",
"80 479 OFFCURVE",
"80 377 CURVE SMOOTH",
"80 278 OFFCURVE",
"155 213 OFFCURVE",
"274 124 CURVE",
"198 86 OFFCURVE",
"121 68 OFFCURVE",
"42 68 CURVE",
"42 -10 LINE"
);
}
);
width = 410;
}
);
unicode = 10B66;
category = Letter;
},
{
glyphname = u10B67;
lastChange = "2017-04-12 19:56:05 +0000";
layers = (
{
layerId = UUID0;
paths = (
{
closed = 1;
nodes = (
"210 -10 OFFCURVE",
"293 53 OFFCURVE",
"293 170 CURVE SMOOTH",
"293 258 OFFCURVE",
"258 295 OFFCURVE",
"258 360 CURVE SMOOTH",
"258 430 OFFCURVE",
"292 472 OFFCURVE",
"352 472 CURVE SMOOTH",
"412 472 OFFCURVE",
"449 431 OFFCURVE",
"449 361 CURVE SMOOTH",
"449 293 OFFCURVE",
"407 256 OFFCURVE",
"407 171 CURVE SMOOTH",
"407 69 OFFCURVE",
"470 -9 OFFCURVE",
"582 -9 CURVE SMOOTH",
"690 -9 OFFCURVE",
"755 48 OFFCURVE",
"755 150 CURVE SMOOTH",
"755 183 OFFCURVE",
"747 226 OFFCURVE",
"733 255 CURVE",
"643 255 LINE",
"659 224 OFFCURVE",
"667 188 OFFCURVE",
"667 150 CURVE SMOOTH",
"667 93 OFFCURVE",
"639 65 OFFCURVE",
"582 65 CURVE SMOOTH",
"528 65 OFFCURVE",
"492 108 OFFCURVE",
"492 170 CURVE SMOOTH",
"492 235 OFFCURVE",
"537 296 OFFCURVE",
"537 361 CURVE SMOOTH",
"537 478 OFFCURVE",
"470 546 OFFCURVE",
"353 546 CURVE SMOOTH",
"234 546 OFFCURVE",
"170 478 OFFCURVE",
"170 360 CURVE SMOOTH",
"170 294 OFFCURVE",
"205 244 OFFCURVE",
"205 168 CURVE SMOOTH",
"205 97 OFFCURVE",
"168 64 OFFCURVE",
"89 64 CURVE SMOOTH",
"58 64 OFFCURVE",
"30 68 OFFCURVE",
"5 77 CURVE",
"5 0 LINE",
"30 -6 OFFCURVE",
"58 -10 OFFCURVE",
"89 -10 CURVE SMOOTH"
);
}
);
width = 797;
}
);
unicode = 10B67;
category = Letter;
},
{
glyphname = u10B68;
lastChange = "2017-04-12 19:56:05 +0000";
layers = (
{
layerId = UUID0;
paths = (
{
closed = 1;
nodes = (
"412 0 LINE",
"412 74 LINE",
"180 74 LINE",
"228 119 OFFCURVE",
"267 197 OFFCURVE",
"267 257 CURVE SMOOTH",
"267 393 OFFCURVE",
"146 424 OFFCURVE",
"146 548 CURVE SMOOTH",
"146 646 OFFCURVE",
"199 696 OFFCURVE",
"304 696 CURVE SMOOTH",
"337 696 OFFCURVE",
"375 688 OFFCURVE",
"420 671 CURVE",
"447 741 LINE",
"418 758 OFFCURVE",
"352 770 OFFCURVE",
"306 770 CURVE SMOOTH",
"158 770 OFFCURVE",
"55 693 OFFCURVE",
"55 550 CURVE SMOOTH",
"55 396 OFFCURVE",
"176 362 OFFCURVE",
"176 257 CURVE SMOOTH",
"176 173 OFFCURVE",
"140 123 OFFCURVE",
"70 59 CURVE",
"70 0 LINE"
);
}
);
width = 437;
}
);
unicode = 10B68;
category = Letter;
},
{
glyphname = u10B69;
lastChange = "2017-04-12 19:56:05 +0000";
layers = (
{
layerId = UUID0;
paths = (
{
closed = 1;
nodes = (
"274 47 OFFCURVE",
"422 170 OFFCURVE",
"422 339 CURVE SMOOTH",
"422 470 OFFCURVE",
"337 546 OFFCURVE",
"194 546 CURVE SMOOTH",
"114 546 OFFCURVE",
"53 526 OFFCURVE",
"-8 482 CURVE",
"36 417 LINE",
"81 454 OFFCURVE",
"133 472 OFFCURVE",
"192 472 CURVE SMOOTH",
"273 472 OFFCURVE",
"331 421 OFFCURVE",
"331 341 CURVE SMOOTH",
"331 210 OFFCURVE",
"236 133 OFFCURVE",
"91 71 CURVE",
"91 -10 LINE"
);
}
);
width = 487;
}
);
unicode = 10B69;
category = Letter;
},
{
glyphname = u10B6A;
lastChange = "2017-04-12 19:56:05 +0000";
layers = (
{
layerId = UUID0;
paths = (
{
closed = 1;
nodes = (
"440 -240 LINE",
"440 -166 LINE",
"224 -166 LINE",
"299 -128 OFFCURVE",
"357 -48 OFFCURVE",
"357 30 CURVE SMOOTH",
"357 120 OFFCURVE",
"296 191 OFFCURVE",
"182 237 CURVE",
"261 286 OFFCURVE",
"322 333 OFFCURVE",
"322 412 CURVE SMOOTH",
"322 499 OFFCURVE",
"257 546 OFFCURVE",
"140 546 CURVE SMOOTH",
"103 546 OFFCURVE",
"58 538 OFFCURVE",
"31 525 CURVE",
"56 453 LINE",
"70 462 OFFCURVE",
"113 472 OFFCURVE",
"140 472 CURVE SMOOTH",
"201 472 OFFCURVE",
"232 452 OFFCURVE",
"232 412 CURVE SMOOTH",
"232 353 OFFCURVE",
"192 320 OFFCURVE",
"89 266 CURVE",
"89 192 LINE",
"173 180 OFFCURVE",
"266 116 OFFCURVE",
"266 29 CURVE SMOOTH",
"266 -81 OFFCURVE",
"158 -146 OFFCURVE",
"24 -177 CURVE",
"24 -240 LINE"
);
}
);
width = 469;
}
);
unicode = 10B6A;
category = Letter;
},
{
glyphname = u10B6B;
lastChange = "2017-04-12 19:56:05 +0000";
layers = (
{
layerId = UUID0;
paths = (
{
closed = 1;
nodes = (
"89 -187 OFFCURVE",
"144 -167 OFFCURVE",
"229 -150 CURVE SMOOTH",
"371 -121 OFFCURVE",
"440 -41 OFFCURVE",
"440 78 CURVE SMOOTH",
"440 202 OFFCURVE",
"354 281 OFFCURVE",
"228 281 CURVE SMOOTH",
"209 281 OFFCURVE",
"191 279 OFFCURVE",
"174 275 CURVE",
"174 760 LINE",
"86 760 LINE",
"86 171 LINE",
"113 192 OFFCURVE",
"170 207 OFFCURVE",
"207 207 CURVE SMOOTH",
"295 207 OFFCURVE",
"349 160 OFFCURVE",
"349 77 CURVE SMOOTH",
"349 -10 OFFCURVE",
"303 -56 OFFCURVE",
"198 -77 CURVE SMOOTH",
"127 -91 OFFCURVE",
"70 -113 OFFCURVE",
"28 -143 CURVE",
"28 -240 LINE"
);
}
);
width = 482;
}
);
unicode = 10B6B;
category = Letter;
},
{
glyphname = u10B6C;
lastChange = "2017-04-12 19:56:05 +0000";
layers = (
{
layerId = UUID0;
paths = (
{
closed = 1;
nodes = (
"484 -10 OFFCURVE",
"589 92 OFFCURVE",
"589 269 CURVE SMOOTH",
"589 436 OFFCURVE",
"495 546 OFFCURVE",
"324 546 CURVE SMOOTH",
"279 546 OFFCURVE",
"231 538 OFFCURVE",
"182 523 CURVE",
"171 546 OFFCURVE",
"165 567 OFFCURVE",
"165 586 CURVE SMOOTH",
"165 628 OFFCURVE",
"179 671 OFFCURVE",
"206 714 CURVE",
"128 714 LINE",
"105 683 OFFCURVE",
"87 623 OFFCURVE",
"87 584 CURVE SMOOTH",
"87 551 OFFCURVE",
"91 529 OFFCURVE",
"109 494 CURVE",
"74 478 OFFCURVE",
"40 458 OFFCURVE",
"5 435 CURVE",
"47 371 LINE",
"79 392 OFFCURVE",
"111 411 OFFCURVE",
"144 427 CURVE",
"221 284 LINE",
"87 124 LINE",
"87 62 LINE",
"145 12 OFFCURVE",
"240 -10 OFFCURVE",
"324 -10 CURVE SMOOTH"
);
},
{
closed = 1;
nodes = (
"266 63 OFFCURVE",
"212 75 OFFCURVE",
"163 98 CURVE",
"312 275 LINE",
"217 455 LINE",
"252 466 OFFCURVE",
"288 472 OFFCURVE",
"324 472 CURVE SMOOTH",
"438 472 OFFCURVE",
"498 389 OFFCURVE",
"498 269 CURVE SMOOTH",
"498 133 OFFCURVE",
"437 63 OFFCURVE",
"324 63 CURVE SMOOTH"
);
}
);
width = 643;
}
);
unicode = 10B6C;
category = Letter;
},
{
glyphname = u10B6D;
lastChange = "2017-04-12 19:56:05 +0000";
layers = (
{
layerId = UUID0;
paths = (
{
closed = 1;
nodes = (
"459 -240 LINE",
"459 -166 LINE",
"123 -166 LINE",
"201 -94 OFFCURVE",
"259 -13 OFFCURVE",
"292 94 CURVE",
"217 217 OFFCURVE",
"168 389 OFFCURVE",
"164 536 CURVE",
"77 536 LINE",
"83 380 OFFCURVE",
"129 219 OFFCURVE",
"206 83 CURVE",
"169 -24 OFFCURVE",
"101 -109 OFFCURVE",
"0 -173 CURVE",
"0 -240 LINE"
);
}
);
width = 401;
}
);
unicode = 10B6D;
category = Letter;
},
{
glyphname = u10B6E;
lastChange = "2017-04-12 19:56:05 +0000";
layers = (
{
layerId = UUID0;
paths = (
{
closed = 1;
nodes = (
"235 64 OFFCURVE",
"355 161 OFFCURVE",
"355 339 CURVE SMOOTH",
"355 372 OFFCURVE",
"349 401 OFFCURVE",
"338 429 CURVE",
"382 458 OFFCURVE",
"426 472 OFFCURVE",
"469 472 CURVE SMOOTH",
"544 472 OFFCURVE",
"586 418 OFFCURVE",
"586 341 CURVE SMOOTH",
"586 232 OFFCURVE",
"515 144 OFFCURVE",
"373 68 CURVE",
"373 -10 LINE",
"538 52 OFFCURVE",
"677 184 OFFCURVE",
"677 339 CURVE SMOOTH",
"677 468 OFFCURVE",
"602 546 OFFCURVE",
"476 546 CURVE SMOOTH",
"409 546 OFFCURVE",
"350 527 OFFCURVE",
"299 489 CURVE",
"260 527 OFFCURVE",
"207 546 OFFCURVE",
"139 546 CURVE SMOOTH",
"104 546 OFFCURVE",
"75 540 OFFCURVE",
"51 527 CURVE",
"51 453 LINE",
"80 466 OFFCURVE",
"109 472 OFFCURVE",
"139 472 CURVE SMOOTH",
"214 472 OFFCURVE",
"264 416 OFFCURVE",
"264 341 CURVE SMOOTH",
"264 205 OFFCURVE",
"192 131 OFFCURVE",
"48 68 CURVE",
"48 -10 LINE"
);
}
);
width = 731;
}
);
unicode = 10B6E;
category = Letter;
},
{
glyphname = u10B6F;
lastChange = "2017-04-12 19:56:05 +0000";
layers = (
{
layerId = UUID0;
paths = (
{
closed = 1;
nodes = (
"547 -120 LINE",
"547 0 LINE",
"618 0 LINE",
"618 74 LINE",
"547 74 LINE",
"547 211 LINE SMOOTH",
"547 423 OFFCURVE",
"489 546 OFFCURVE",
"298 546 CURVE SMOOTH",
"141 546 OFFCURVE",
"55 438 OFFCURVE",
"55 268 CURVE SMOOTH",
"55 88 OFFCURVE",
"170 0 OFFCURVE",
"358 0 CURVE SMOOTH",
"459 0 LINE",
"459 -120 LINE"
);
},
{
closed = 1;
nodes = (
"224 74 OFFCURVE",
"146 133 OFFCURVE",
"146 267 CURVE SMOOTH",
"146 404 OFFCURVE",
"197 472 OFFCURVE",
"299 472 CURVE SMOOTH",
"427 472 OFFCURVE",
"459 370 OFFCURVE",
"459 212 CURVE SMOOTH",
"459 74 LINE",
"369 74 LINE SMOOTH"
);
}
);
width = 642;
}
);
unicode = 10B6F;
category = Letter;
},
{
glyphname = u10B70;
lastChange = "2017-04-12 19:56:05 +0000";
layers = (
{
layerId = UUID0;
paths = (
{
closed = 1;
nodes = (
"482 -240 LINE",
"482 -166 LINE",
"177 -166 LINE",
"264 -102 OFFCURVE",
"313 -22 OFFCURVE",
"315 90 CURVE",
"211 171 OFFCURVE",
"140 247 OFFCURVE",
"140 356 CURVE SMOOTH",
"140 424 OFFCURVE",
"179 472 OFFCURVE",
"242 472 CURVE SMOOTH",
"305 472 OFFCURVE",
"334 436 OFFCURVE",
"334 362 CURVE SMOOTH",
"334 249 OFFCURVE",
"384 193 OFFCURVE",
"485 193 CURVE SMOOTH",
"585 193 OFFCURVE",
"638 258 OFFCURVE",
"638 374 CURVE SMOOTH",
"638 399 OFFCURVE",
"636 421 OFFCURVE",
"633 440 CURVE",
"552 440 LINE",
"555 422 OFFCURVE",
"556 400 OFFCURVE",
"556 374 CURVE SMOOTH",
"556 299 OFFCURVE",
"534 267 OFFCURVE",
"488 267 CURVE SMOOTH",
"428 267 OFFCURVE",
"412 306 OFFCURVE",
"412 383 CURVE SMOOTH",
"412 486 OFFCURVE",
"350 546 OFFCURVE",
"245 546 CURVE SMOOTH",
"141 546 OFFCURVE",
"52 471 OFFCURVE",
"52 358 CURVE SMOOTH",
"52 270 OFFCURVE",
"73 218 OFFCURVE",
"111 168 CURVE SMOOTH",
"140 130 OFFCURVE",
"178 96 OFFCURVE",
"223 58 CURVE",
"217 -35 OFFCURVE",
"158 -91 OFFCURVE",
"50 -177 CURVE",
"50 -240 LINE"
);
}
);
width = 680;
}
);
unicode = 10B70;
category = Letter;
},
{
glyphname = u10B71;
lastChange = "2017-04-12 19:56:05 +0000";
layers = (
{
layerId = UUID0;
paths = (
{
closed = 1;
nodes = (
"713 0 LINE",
"713 74 LINE",
"522 74 LINE",
"624 152 OFFCURVE",
"676 243 OFFCURVE",
"676 339 CURVE SMOOTH",
"676 459 OFFCURVE",
"607 546 OFFCURVE",
"484 546 CURVE SMOOTH",
"444 546 OFFCURVE",
"410 540 OFFCURVE",
"380 529 CURVE",
"407 456 LINE",
"424 464 OFFCURVE",
"447 468 OFFCURVE",
"475 468 CURVE SMOOTH",
"543 468 OFFCURVE",
"584 419 OFFCURVE",
"584 341 CURVE SMOOTH",
"584 244 OFFCURVE",
"526 155 OFFCURVE",
"410 74 CURVE",
"202 74 LINE",
"305 159 OFFCURVE",
"356 247 OFFCURVE",
"356 339 CURVE SMOOTH",
"356 459 OFFCURVE",
"287 546 OFFCURVE",
"164 546 CURVE SMOOTH",
"125 546 OFFCURVE",
"90 540 OFFCURVE",
"60 529 CURVE",
"87 456 LINE",
"104 464 OFFCURVE",
"126 468 OFFCURVE",
"155 468 CURVE SMOOTH",
"225 468 OFFCURVE",
"264 415 OFFCURVE",
"264 341 CURVE SMOOTH",
"264 240 OFFCURVE",
"201 149 OFFCURVE",
"74 67 CURVE",
"74 0 LINE"
);
}
);
width = 778;
}
);
unicode = 10B71;
category = Letter;
},
{
glyphname = u10B72;
lastChange = "2017-04-12 19:56:05 +0000";
layers = (
{
layerId = UUID0;
paths = (
{
closed = 1;
nodes = (
"475 -240 LINE",
"475 -166 LINE",
"118 -166 LINE",
"187 -62 OFFCURVE",
"239 30 OFFCURVE",
"266 144 CURVE",
"259 195 OFFCURVE",
"248 252 OFFCURVE",
"233 313 CURVE",
"262 364 OFFCURVE",
"316 394 OFFCURVE",
"376 394 CURVE SMOOTH",
"453 394 OFFCURVE",
"506 340 OFFCURVE",
"506 255 CURVE SMOOTH",
"506 201 OFFCURVE",
"467 140 OFFCURVE",
"413 109 CURVE",
"476 54 LINE",
"551 109 OFFCURVE",
"597 179 OFFCURVE",
"597 256 CURVE SMOOTH",
"597 389 OFFCURVE",
"505 472 OFFCURVE",
"378 472 CURVE SMOOTH",
"316 472 OFFCURVE",
"250 443 OFFCURVE",
"209 398 CURVE",
"191 455 OFFCURVE",
"172 501 OFFCURVE",
"154 536 CURVE",
"55 536 LINE",
"115 430 OFFCURVE",
"166 262 OFFCURVE",
"177 141 CURVE",
"147 36 OFFCURVE",
"80 -91 OFFCURVE",
"10 -173 CURVE",
"10 -240 LINE"
);
}
);
width = 649;
}
);
unicode = 10B72;
category = Letter;
},
{
glyphname = u10B78;
lastChange = "2017-04-12 19:56:05 +0000";
layers = (
{
layerId = UUID0;
paths = (
{
closed = 1;
nodes = (
"266 -240 LINE",
"266 379 LINE SMOOTH",
"266 492 OFFCURVE",
"224 546 OFFCURVE",
"131 546 CURVE SMOOTH",
"116 546 OFFCURVE",
"100 544 OFFCURVE",
"84 541 CURVE SMOOTH",
"69 538 OFFCURVE",
"57 534 OFFCURVE",
"49 530 CURVE",
"49 461 LINE",
"69 468 OFFCURVE",
"91 472 OFFCURVE",
"115 472 CURVE SMOOTH",
"158 472 OFFCURVE",
"178 442 OFFCURVE",
"178 378 CURVE SMOOTH",
"178 -240 LINE"
);
}
);
width = 413;
}
);
unicode = 10B78;
category = Number;
},
{
glyphname = u10B7C;
lastChange = "2017-04-12 19:56:05 +0000";
layers = (
{
layerId = UUID0;
paths = (
{
closed = 1;
nodes = (
"465 0 LINE",
"465 380 LINE SMOOTH",
"465 455 OFFCURVE",
"443 492 OFFCURVE",
"404 515 CURVE SMOOTH",
"365 538 OFFCURVE",
"308 546 OFFCURVE",
"234 546 CURVE SMOOTH",
"176 546 OFFCURVE",
"109 542 OFFCURVE",
"24 532 CURVE",
"33 458 LINE",
"95 466 OFFCURVE",
"180 472 OFFCURVE",
"237 472 CURVE SMOOTH",
"343 472 OFFCURVE",
"377 452 OFFCURVE",
"377 369 CURVE SMOOTH",
"377 0 LINE"
);
}
);
width = 587;
}
);
unicode = 10B7C;
category = Number;
},
{
glyphname = u10B7D;
lastChange = "2017-04-12 19:56:05 +0000";
layers = (
{
layerId = UUID0;
paths = (
{
closed = 1;
nodes = (
"292 -210 OFFCURVE",
"389 -149 OFFCURVE",
"389 -18 CURVE SMOOTH",
"389 96 OFFCURVE",
"321 175 OFFCURVE",
"196 211 CURVE",
"291 260 OFFCURVE",
"339 317 OFFCURVE",
"339 387 CURVE SMOOTH",
"339 493 OFFCURVE",
"282 546 OFFCURVE",
"168 546 CURVE SMOOTH",
"135 546 OFFCURVE",
"107 542 OFFCURVE",
"83 532 CURVE",
"83 460 LINE",
"108 468 OFFCURVE",
"132 472 OFFCURVE",
"157 472 CURVE SMOOTH",
"220 472 OFFCURVE",
"250 446 OFFCURVE",
"250 387 CURVE SMOOTH",
"250 332 OFFCURVE",
"205 281 OFFCURVE",
"117 235 CURVE",
"117 170 LINE",
"237 141 OFFCURVE",
"298 76 OFFCURVE",
"298 -16 CURVE SMOOTH",
"298 -94 OFFCURVE",
"245 -136 OFFCURVE",
"151 -136 CURVE SMOOTH",
"127 -136 OFFCURVE",
"101 -134 OFFCURVE",
"73 -129 CURVE",
"73 -203 LINE",
"104 -208 OFFCURVE",
"131 -210 OFFCURVE",
"152 -210 CURVE SMOOTH"
);
}
);
width = 462;
}
);
unicode = 10B7D;
category = Number;
},
{
glyphname = u10B7E;
lastChange = "2017-04-12 19:56:05 +0000";
layers = (
{
layerId = UUID0;
paths = (
{
closed = 1;
nodes = (
"260 -240 LINE",
"316 -194 OFFCURVE",
"389 -73 OFFCURVE",
"430 11 CURVE",
"430 74 LINE",
"153 74 LINE",
"165 171 OFFCURVE",
"179 251 OFFCURVE",
"195 315 CURVE",
"223 277 OFFCURVE",
"264 259 OFFCURVE",
"317 259 CURVE SMOOTH",
"401 259 OFFCURVE",
"473 317 OFFCURVE",
"473 406 CURVE SMOOTH",
"473 486 OFFCURVE",
"413 546 OFFCURVE",
"326 546 CURVE SMOOTH",
"308 546 OFFCURVE",
"292 543 OFFCURVE",
"276 538 CURVE",
"307 604 OFFCURVE",
"348 678 OFFCURVE",
"398 760 CURVE",
"317 760 LINE",
"258 669 OFFCURVE",
"188 538 OFFCURVE",
"170 447 CURVE",
"106 339 OFFCURVE",
"85 168 OFFCURVE",
"73 0 CURVE",
"330 0 LINE",
"302 -64 OFFCURVE",
"208 -195 OFFCURVE",
"151 -240 CURVE"
);
},
{
closed = 1;
nodes = (
"266 333 OFFCURVE",
"240 364 OFFCURVE",
"240 417 CURVE SMOOTH",
"240 425 LINE",
"261 456 OFFCURVE",
"285 471 OFFCURVE",
"314 471 CURVE SMOOTH",
"359 471 OFFCURVE",
"385 447 OFFCURVE",
"385 405 CURVE SMOOTH",
"385 364 OFFCURVE",
"356 333 OFFCURVE",
"311 333 CURVE SMOOTH"
);
}
);
width = 546;
}
);
unicode = 10B7E;
category = Number;
},
{
glyphname = u10B7F;
lastChange = "2017-04-12 19:56:05 +0000";
layers = (
{
layerId = UUID0;
paths = (
{
closed = 1;
nodes = (
"710 -240 LINE",
"710 -166 LINE",
"343 -166 LINE",
"343 243 LINE",
"560 243 LINE",
"560 760 LINE",
"472 760 LINE",
"472 317 LINE",
"343 317 LINE",
"343 379 LINE SMOOTH",
"343 492 OFFCURVE",
"294 546 OFFCURVE",
"194 546 CURVE SMOOTH",
"102 546 OFFCURVE",
"49 489 OFFCURVE",
"49 392 CURVE SMOOTH",
"49 293 OFFCURVE",
"102 243 OFFCURVE",
"217 243 CURVE SMOOTH",
"255 243 LINE",
"255 -240 LINE"
);
},
{
closed = 1;
nodes = (
"159 317 OFFCURVE",
"137 342 OFFCURVE",
"137 392 CURVE SMOOTH",
"137 442 OFFCURVE",
"156 472 OFFCURVE",
"195 472 CURVE SMOOTH",
"235 472 OFFCURVE",
"255 443 OFFCURVE",
"255 384 CURVE SMOOTH",
"255 317 LINE",
"217 317 LINE SMOOTH"
);
}
);
width = 690;
}
);
unicode = 10B7F;
category = Letter;
},
{
glyphname = u10B6B.alt01;
lastChange = "2017-04-12 19:56:05 +0000";
layers = (
{
layerId = UUID0;
paths = (
{
closed = 1;
nodes = (
"89 -42 OFFCURVE",
"144 -22 OFFCURVE",
"229 -5 CURVE SMOOTH",
"371 24 OFFCURVE",
"440 104 OFFCURVE",
"440 224 CURVE SMOOTH",
"440 347 OFFCURVE",
"354 426 OFFCURVE",
"228 426 CURVE SMOOTH",
"209 426 OFFCURVE",
"191 424 OFFCURVE",
"174 420 CURVE",
"174 760 LINE",
"86 760 LINE",
"86 316 LINE",
"113 337 OFFCURVE",
"170 352 OFFCURVE",
"207 352 CURVE SMOOTH",
"295 352 OFFCURVE",
"349 305 OFFCURVE",
"349 222 CURVE SMOOTH",
"349 135 OFFCURVE",
"303 89 OFFCURVE",
"198 68 CURVE SMOOTH",
"127 54 OFFCURVE",
"70 32 OFFCURVE",
"28 2 CURVE",
"28 -95 LINE"
);
}
);
width = 494;
}
);
category = Letter;
},
{
glyphname = u10B61.alt01;
lastChange = "2017-04-12 19:56:05 +0000";
layers = (
{
layerId = UUID0;
paths = (
{
closed = 1;
nodes = (
"265 -352 LINE",
"265 336 LINE",
"177 336 LINE",
"177 -277 LINE",
"-527 -277 LINE",
"-527 -352 LINE"
);
}
);
width = 350;
}
);
category = Letter;
},
{
glyphname = u10B61.alt02;
lastChange = "2017-04-12 19:56:05 +0000";
layers = (
{
layerId = UUID0;
paths = (
{
closed = 1;
nodes = (
"265 -144 LINE",
"265 336 LINE",
"177 336 LINE",
"177 -70 LINE",
"-527 -70 LINE",
"-527 -144 LINE"
);
}
);
width = 350;
}
);
category = Letter;
},
